<?xml version="1.0" encoding="iso-8859-1"?>
<!-- Uploaded to: SVG Repo, www.svgrepo.com, Generator: SVG Repo Mixer Tools -->
<svg fill="#000000" height="800px" width="800px" version="1.1" id="Layer_1" xmlns="http://www.w3.org/2000/svg" xmlns:xlink="http://www.w3.org/1999/xlink" 
	 viewBox="0 0 512 512" xml:space="preserve">
<g>
	<g>
		<path d="M256,0c-54.983,0-99.556,44.572-99.556,99.556c0,4.831,0.363,9.576,1.028,14.222h197.055
			c0.666-4.646,1.028-9.391,1.028-14.222C355.556,44.572,310.983,0,256,0z"/>
	</g>
</g>
<g>
	<g>
		<path d="M166.037,142.222c15.98,33.631,50.25,56.889,89.963,56.889s73.983-23.258,89.963-56.889H166.037z"/>
	</g>
</g>
<g>
	<g>
		<path d="M256,241.778c-19.885,0-39.211-4.247-56.889-12.008v168.452c0,23.872,14.71,44.297,35.556,52.737V512h42.667v-61.04
			c20.846-8.441,35.556-28.865,35.556-52.737V229.77C295.211,237.531,275.885,241.778,256,241.778z"/>
	</g>
</g>
</svg>