<?xml version="1.0" encoding="utf-8"?>
<!-- Uploaded to: SVG Repo, www.svgrepo.com, Generator: SVG Repo Mixer Tools -->
<svg fill="#000000" width="800px" height="800px" viewBox="0 0 32 32" version="1.1" xmlns="http://www.w3.org/2000/svg">
<title>microscope</title>
<path d="M28.5 28.75h-2.66c0.398-0.329 0.756-0.671 1.088-1.036l0.008-0.009c1.749-2.013 2.816-4.66 2.816-7.556 0-0.052-0-0.105-0.001-0.157l0 0.008c0.004-0.107 0.006-0.234 0.006-0.36 0-5.698-4.387-10.371-9.967-10.827l-0.039-0.003v-1.81c-0.002-1.343-0.817-2.495-1.979-2.99l-0.021-0.008v-2.001c0-0.69-0.56-1.25-1.25-1.25v0h-4c-0.69 0-1.25 0.56-1.25 1.25v0 2.002c-1.183 0.503-1.998 1.656-2 2.998v12c0.002 1.794 1.456 3.248 3.25 3.25h4c1.794-0.001 3.249-1.456 3.25-3.25v-7.629c4.233 0.438 7.506 3.987 7.506 8.3 0 0.116-0.002 0.231-0.007 0.346l0.001-0.016c0.001 0.044 0.001 0.095 0.001 0.147 0 2.258-0.827 4.324-2.195 5.91l0.010-0.012c-1.554 1.671-3.764 2.712-6.218 2.712-0.122 0-0.244-0.003-0.366-0.008l0.017 0.001h-15c-0.69 0-1.25 0.56-1.25 1.25s0.56 1.25 1.25 1.25v0h25c0.69 0 1.25-0.56 1.25-1.25s-0.56-1.25-1.25-1.25v0zM13.75 3.25h1.5v0.5h-1.5zM17.25 19c-0.006 0.412-0.338 0.744-0.749 0.75h-4.001c-0.412-0.006-0.744-0.338-0.75-0.749v-12.001c0.006-0.412 0.338-0.744 0.749-0.75h4.001c0.412 0.006 0.744 0.338 0.75 0.749v0.001zM8.5 26.744h12c0.69 0 1.25-0.56 1.25-1.25s-0.56-1.25-1.25-1.25v0h-12c-0.69 0-1.25 0.56-1.25 1.25s0.56 1.25 1.25 1.25v0z"></path>
</svg>