<?xml version="1.0" standalone="no"?>
<!DOCTYPE svg PUBLIC "-//W3C//DTD SVG 20010904//EN"
 "http://www.w3.org/TR/2001/REC-SVG-20010904/DTD/svg10.dtd">
<svg version="1.0" xmlns="http://www.w3.org/2000/svg"
 width="97.000000pt" height="300.000000pt" viewBox="0 0 97.000000 300.000000"
 preserveAspectRatio="xMidYMid meet">
<metadata>
Created by potrace 1.10, written by Peter Selinger 2001-2011
</metadata>
<g transform="translate(0.000000,300.000000) scale(0.100000,-0.100000)"
fill="#000000" stroke="none">
<path d="M376 2335 c-197 -90 -363 -168 -368 -173 -5 -5 3 -175 21 -423 17
-228 40 -551 52 -719 12 -168 26 -310 31 -317 5 -6 46 -24 91 -39 45 -15 87
-29 93 -31 7 -2 144 135 306 305 l295 309 6 284 c4 156 10 433 14 615 l6 331
-77 12 c-42 6 -85 11 -94 11 -9 0 -179 -74 -376 -165z m468 139 l48 -7 -332
-170 -332 -169 -77 12 c-134 21 -134 17 -4 75 65 29 226 103 358 164 161 74
248 109 265 106 14 -2 47 -7 74 -11z m56 -510 c-6 -269 -13 -540 -16 -603 l-6
-114 -201 -211 c-339 -356 -367 -384 -367 -367 0 9 -16 315 -35 681 -19 366
-35 688 -35 717 l0 51 333 170 c182 94 333 169 334 168 2 -1 -2 -223 -7 -492z
m-770 165 c41 -6 79 -15 83 -19 8 -7 88 -1451 81 -1459 -4 -4 -156 49 -167 59
-4 4 -30 306 -57 671 -27 365 -52 688 -56 718 -6 52 -5 53 18 48 12 -3 57 -11
98 -18z"/>
</g>
</svg>
